HIERARCHY
ROOT Hips
{
  OFFSET -43.3411 73.6987 0
  CHANNELS 6 Xposition Yposition Zposition Zrotation Xrotation Yrotation
  JOINT Bip01_Pelvis
  {
    OFFSET 0 0 0
    CHANNELS 6 Xposition Yposition Zposition Zrotation Xrotation Yrotation
    JOINT BN_Tail_01
    {
      OFFSET -18.6385 -9.591 -2.032e-005
      CHANNELS 6 Xposition Yposition Zposition Zrotation Xrotation Yrotation
      JOINT BN_Tail_02
      {
        OFFSET 20.9743 0 0
        CHANNELS 6 Xposition Yposition Zposition Zrotation Xrotation Yrotation
        JOINT BN_Tail_03
        {
          OFFSET 20.3015 0 0
          CHANNELS 6 Xposition Yposition Zposition Zrotation Xrotation Yrotation
          JOINT BN_Tail_04
          {
            OFFSET 21.6394 -9.91821e-005 0
            CHANNELS 6 Xposition Yposition Zposition Zrotation Xrotation Yrotation
            End Site
            {
              OFFSET 0 0 0
            }
          }
        }
      }
    }
    JOINT Bip01_Spine
    {
      OFFSET 22.1878 -0.659386 3.048e-005
      CHANNELS 6 Xposition Yposition Zposition Zrotation Xrotation Yrotation
      JOINT Bip01_R_Thigh
      {
        OFFSET -22.1873 0.677109 -17.1024
        CHANNELS 6 Xposition Yposition Zposition Zrotation Xrotation Yrotation
        JOINT Bip01_R_Calf
        {
          OFFSET 34.2647 0 0
          CHANNELS 6 Xposition Yposition Zposition Zrotation Xrotation Yrotation
          JOINT Bip01_R_HorseLink
          {
            OFFSET 20.4429 0 0
            CHANNELS 6 Xposition Yposition Zposition Zrotation Xrotation Yrotation
            JOINT Bip01_R_Foot
            {
              OFFSET 16.5673 0 0
              CHANNELS 6 Xposition Yposition Zposition Zrotation Xrotation Yrotation
              JOINT Bip01_R_Toe0
              {
                OFFSET 9.18784 6.94841 0
                CHANNELS 6 Xposition Yposition Zposition Zrotation Xrotation Yrotation
                JOINT Bip01_R_Toe0Nub
                {
                  OFFSET 1.01907 0 0
                  CHANNELS 6 Xposition Yposition Zposition Zrotation Xrotation Yrotation
                  End Site
                  {
                    OFFSET 0 0 0
                  }
                }
              }
            }
          }
        }
      }
      JOINT Bip01_L_Thigh
      {
        OFFSET -22.1873 0.67701 17.1024
        CHANNELS 6 Xposition Yposition Zposition Zrotation Xrotation Yrotation
        JOINT Bip01_L_Calf
        {
          OFFSET 34.2647 0 0
          CHANNELS 6 Xposition Yposition Zposition Zrotation Xrotation Yrotation
          JOINT Bip01_L_HorseLink
          {
            OFFSET 20.4429 0 0
            CHANNELS 6 Xposition Yposition Zposition Zrotation Xrotation Yrotation
            JOINT Bip01_L_Foot
            {
              OFFSET 16.5673 0 0
              CHANNELS 6 Xposition Yposition Zposition Zrotation Xrotation Yrotation
              JOINT Bip01_L_Toe0
              {
                OFFSET 9.18784 6.9484 1.14441e-005
                CHANNELS 6 Xposition Yposition Zposition Zrotation Xrotation Yrotation
                JOINT Bip01_L_Toe0Nub
                {
                  OFFSET 1.01907 0 0
                  CHANNELS 6 Xposition Yposition Zposition Zrotation Xrotation Yrotation
                  End Site
                  {
                    OFFSET 0 0 0
                  }
                }
              }
            }
          }
        }
      }
      JOINT Bip01_Spine1
      {
        OFFSET 39.3372 -0.0249863 0
        CHANNELS 6 Xposition Yposition Zposition Zrotation Xrotation Yrotation
        JOINT Bip01_Neck
        {
          OFFSET 34.2837 -15.5934 -4.318e-005
          CHANNELS 6 Xposition Yposition Zposition Zrotation Xrotation Yrotation
          JOINT Bip01_R_Clavicle
          {
            OFFSET -17.9452 -11.3131 -6.19287
            CHANNELS 6 Xposition Yposition Zposition Zrotation Xrotation Yrotation
            JOINT Bip01_R_UpperArm
            {
              OFFSET 17.4439 1.52588e-005 -2.28882e-005
              CHANNELS 6 Xposition Yposition Zposition Zrotation Xrotation Yrotation
              JOINT Bip01_R_Forearm
              {
                OFFSET 30.6251 1.14441e-005 0
                CHANNELS 6 Xposition Yposition Zposition Zrotation Xrotation Yrotation
                JOINT Bip01_R_Hand
                {
                  OFFSET 31.2039 0 0
                  CHANNELS 6 Xposition Yposition Zposition Zrotation Xrotation Yrotation
                  JOINT Bip01_R_Finger0
                  {
                    OFFSET 22.1039 0.255862 -0.37902
                    CHANNELS 6 Xposition Yposition Zposition Zrotation Xrotation Yrotation
                    JOINT Bip01_R_Finger0Nub
                    {
                      OFFSET 12.0552 0 0
                      CHANNELS 6 Xposition Yposition Zposition Zrotation Xrotation Yrotation
                      End Site
                      {
                        OFFSET 0 0 0
                      }
                    }
                  }
                }
              }
            }
          }
          JOINT Bip01_L_Clavicle
          {
            OFFSET -17.9452 -11.3132 6.19281
            CHANNELS 6 Xposition Yposition Zposition Zrotation Xrotation Yrotation
            JOINT Bip01_L_UpperArm
            {
              OFFSET 17.444 0 1.14441e-005
              CHANNELS 6 Xposition Yposition Zposition Zrotation Xrotation Yrotation
              JOINT Bip01_L_Forearm
              {
                OFFSET 30.6251 0 0
                CHANNELS 6 Xposition Yposition Zposition Zrotation Xrotation Yrotation
                JOINT Bip01_L_Hand
                {
                  OFFSET 31.204 0 0
                  CHANNELS 6 Xposition Yposition Zposition Zrotation Xrotation Yrotation
                  JOINT Bip01_L_Finger0
                  {
                    OFFSET 22.1039 0.255856 0.379024
                    CHANNELS 6 Xposition Yposition Zposition Zrotation Xrotation Yrotation
                    JOINT Bip01_L_Finger0Nub
                    {
                      OFFSET 12.0552 0 0
                      CHANNELS 6 Xposition Yposition Zposition Zrotation Xrotation Yrotation
                      End Site
                      {
                        OFFSET 0 0 0
                      }
                    }
                  }
                }
              }
            }
          }
          JOINT Bip01_Neck1
          {
            OFFSET 14.9359 -0.0106278 0
            CHANNELS 6 Xposition Yposition Zposition Zrotation Xrotation Yrotation
            JOINT Bip01_Head
            {
              OFFSET 14.3578 0.505501 0
              CHANNELS 6 Xposition Yposition Zposition Zrotation Xrotation Yrotation
              JOINT BN_Ear_L_01
              {
                OFFSET 3.76994 -2.35629 12.3444
                CHANNELS 6 Xposition Yposition Zposition Zrotation Xrotation Yrotation
                End Site
                {
                  OFFSET 0 0 0
                }
              }
              JOINT BN_Ear_R_01
              {
                OFFSET 3.76995 -2.35622 -12.3442
                CHANNELS 6 Xposition Yposition Zposition Zrotation Xrotation Yrotation
                End Site
                {
                  OFFSET 0 0 0
                }
              }
              JOINT BN_Mouth_01
              {
                OFFSET 11.8395 10.8645 1.27e-005
                CHANNELS 6 Xposition Yposition Zposition Zrotation Xrotation Yrotation
                JOINT BN_Tongue_01
                {
                  OFFSET 9.73752 3.21674 1.016e-005
                  CHANNELS 6 Xposition Yposition Zposition Zrotation Xrotation Yrotation
                  JOINT BN_Tongue_02
                  {
                    OFFSET 9.04304 0.053505 0
                    CHANNELS 6 Xposition Yposition Zposition Zrotation Xrotation Yrotation
                    End Site
                    {
                      OFFSET 0 0 0
                    }
                  }
                }
                JOINT BN_Beard_01
                {
                  OFFSET 6.93466 -0.751793 0
                  CHANNELS 6 Xposition Yposition Zposition Zrotation Xrotation Yrotation
                  JOINT BN_Beard_02
                  {
                    OFFSET 13.0965 1.52588e-005 0
                    CHANNELS 6 Xposition Yposition Zposition Zrotation Xrotation Yrotation
                    End Site
                    {
                      OFFSET 0 0 0
                    }
                  }
                }
              }
              JOINT Bip01_HeadNub
              {
                OFFSET 25.6158 0 0
                CHANNELS 6 Xposition Yposition Zposition Zrotation Xrotation Yrotation
                End Site
                {
                  OFFSET 0 0 0
                }
              }
            }
          }
        }
      }
    }
  }
}
MOTION
Frames:	4
Frame Time:	0.0333333
-43.3411 73.3613 -0.761718 90 -87.245 -180 0 0 0 -88.48 5.81121 -79.7621 -18.6385 -9.591 5.96046e-007 -44.8668 0.32666 179.943 20.9743 0 -0.000671029 22.7539 0.195751 15.2272 20.3015 -1.42109e-014 -9.53674e-007 7.73176 2.53046 16.9741 21.6394 -7.6294e-006 -9.53674e-007 10.2958 5.51744 30.7461 21.787 1.59278 3.95159 9.25988 -3.06697 -1.47147 -22.2893 3.05922 -20.3547 -95.6118 -2.24614 179.829 34.2647 -7.62939e-006 1.90735e-006 -48.2392 7.00889e-006 7.85566e-006 20.4429 -7.62939e-006 5.72205e-006 70.8674 9.32542e-006 3.49513e-006 16.5673 0 1.90735e-006 -21.4992 7.56949 -0.637108 9.18784 6.9484 -3.8147e-006 89.5774 1.50133 -0.0661847 1.01907 2.38418e-007 3.8147e-006 7.02976e-008 3.53293e-008 1.04913e-006 -21.4124 1.22792 13.7899 -103.843 18.6352 -175.453 34.2647 7.62939e-006 0 -47.6231 5.55928e-006 7.25268e-006 20.4429 -7.10543e-015 -3.8147e-006 62.7184 5.2203e-006 -9.84228e-006 16.5673 1.90735e-006 3.8147e-006 -21.4324 -2.25283 0.242877 9.18784 6.9484 3.8147e-006 89.5168 -1.72894 0.0743162 1.01907 2.22045e-016 -3.55271e-015 179.96 -1.00505e-005 1.79439e-005 39.3331 -0.0246582 0.000216067 -9.59526 -0.494717 -6.53756 34.2801 -15.593 -3.33786e-005 -14.555 -0.000167841 2.18244 -13.5043 -16.1506 -6.71165 -163.85 -37.7459 118.407 17.4439 0 -3.8147e-006 32.2599 52.7582 -95.196 30.6251 -7.15257e-007 -3.81469e-006 -16.9142 9.63051e-006 3.04719e-006 31.2039 3.55272e-015 5.72204e-006 -137.028 79.9378 137.262 22.1039 0.255849 -0.379035 -7.17355 15.0334 -38.8031 12.0552 -1.90735e-006 3.55271e-015 179.96 4.12152e-010 -9.42207e-006 -13.9758 -16.1505 5.66503 -167.184 38.8373 -113.022 17.4439 0 3.8147e-006 63.2096 -51.9465 111.498 30.6251 1.90735e-006 1.90735e-006 -26.1401 -1.58669e-005 -7.7902e-006 31.2039 3.8147e-006 -3.81469e-006 99.5342 -86.854 92.5513 22.1039 0.25586 0.379039 -10.0592 -4.19094 38.659 12.0552 -1.90735e-006 0 -3.89916e-008 9.64447e-006 -7.5638e-007 14.9375 -0.010376 -0.000137329 12.9614 0.745695 3.46375 14.3578 0.505471 -4.76837e-007 11.9386 2.0771 -1.86312 3.7699 -2.35626 12.3444 -172.201 32.7368 -81.1316 3.76993 -2.35621 -12.3442 5.8848 29.4885 114.375 11.8396 10.8645 4.76837e-007 -177.002 -3.76322 178.789 9.73753 3.21677 -9.53675e-007 -2.85749 -1.77652e-005 9.27551e-006 5.17482 0.535263 -0.159799 -9.7303 4.00506e-007 1.64397e-007 6.93462 -0.751786 -1.77636e-015 -82.2976 -5.21349 -2.08038 13.0965 7.6294e-006 -1.19209e-007 -7.89265 -1.63549 -12.1212 25.6158 7.6294e-006 -4.76837e-007 2.19369e-007 -1.04682e-007 1.01989e-009 
-43.3411 73.3613 -0.761718 89.9535 -87.245 -179.994 0 0 0 -88.4731 5.81426 -79.8409 -18.6385 -9.591 5.95911e-007 -44.8801 0.188982 179.314 20.9743 3.12639e-013 -0.000671029 22.7481 0.204128 15.181 20.3015 4.26326e-014 -9.53674e-007 7.71085 2.52543 16.6451 21.6394 -7.6294e-006 -9.53674e-007 9.97821 5.48476 30.8387 21.7924 1.59346 3.9213 9.27406 -3.05622 -1.33725 -22.2453 3.05871 -20.377 -95.6324 -2.19547 179.861 34.2647 -7.62939e-006 1.90735e-006 -48.1928 7.01623e-006 7.84952e-006 20.4429 -7.62939e-006 5.72205e-006 70.8067 -1.40419e-007 2.12953e-007 16.5673 7.10543e-015 1.90735e-006 -21.4574 7.56658 -0.636468 9.18784 6.9484 -3.81493e-006 89.5774 1.50133 -0.0661847 1.01907 2.38418e-007 3.8147e-006 7.02976e-008 3.53293e-008 1.04913e-006 -21.4489 1.23414 13.7697 -103.982 18.686 -175.394 34.2647 7.62939e-006 0 -47.7389 5.05201e-006 7.71444e-006 20.4429 2.13163e-014 -3.8147e-006 62.706 4.44258e-006 -1.02442e-005 16.5673 1.90735e-006 3.8147e-006 -21.3778 -2.2526 0.245024 9.18784 6.9484 3.81445e-006 89.5168 -1.72894 0.0743162 1.01907 7.54952e-015 0 179.96 -1.00505e-005 1.79439e-005 39.3331 -0.0246582 0.000216067 -9.65398 -0.504429 -6.67736 34.2801 -15.593 -3.33788e-005 -14.4761 -0.0373767 2.26297 -13.5172 -16.1265 -6.74249 -163.865 -37.766 118.515 17.4439 0 -3.8147e-006 32.3347 52.54 -95.3283 30.6251 -7.15257e-007 -3.81469e-006 -17.2785 9.61906e-006 3.10689e-006 31.2039 -1.77636e-014 5.72204e-006 -136.893 79.9429 137.188 22.1039 0.255849 -0.379035 -7.17369 15.0335 -38.7102 12.0552 -1.90735e-006 7.10541e-015 179.96 4.12721e-010 -9.4221e-006 -14.0066 -16.1347 5.63361 -167.337 38.8184 -112.907 17.4439 -1.42109e-014 3.8147e-006 62.9487 -51.7286 111.228 30.6251 1.90735e-006 1.90735e-006 -26.6626 -1.58009e-005 -7.93592e-006 31.2039 3.8147e-006 -3.81469e-006 99.7949 -86.858 92.6293 22.1039 0.25586 0.379039 -10.0551 -4.18777 38.5596 12.0552 -1.90735e-006 -7.10541e-015 -3.89916e-008 9.64447e-006 -7.5638e-007 14.9375 -0.010376 -0.000137329 12.8229 0.737309 3.46554 14.3578 0.505471 -4.76828e-007 11.9041 2.12655 -1.87122 3.7699 -2.35626 12.3444 -172.176 32.663 -81.2041 3.76993 -2.35621 -12.3442 5.84589 29.4445 114.463 11.8396 10.8645 4.7686e-007 -177.002 -3.76325 178.789 9.73753 3.21677 -9.53685e-007 -2.85749 -1.77652e-005 9.2755e-006 5.17482 0.535263 -0.159799 -9.7303 4.0052e-007 1.64366e-007 6.93462 -0.751786 2.30571e-012 -82.4032 -5.20656 -2.04756 13.0965 7.6294e-006 -1.19209e-007 -7.86665 -1.63517 -11.8627 25.6158 7.6294e-006 -4.76837e-007 2.19369e-007 -1.04682e-007 1.01989e-009 
-43.3411 73.3613 -0.761718 91.0728 -87.2444 -178.842 0 0 0 -88.4664 5.81732 -79.9182 -18.6385 -9.591 5.95764e-007 -44.9239 0.0639637 178.703 20.9743 6.39489e-013 -0.000671029 22.7418 0.22641 15.048 20.3015 1.42109e-014 -9.53674e-007 7.63787 2.50106 16.3002 21.6394 -7.6294e-006 -9.53674e-007 9.66686 5.45222 30.9293 21.7976 1.59413 3.8916 9.2881 -3.04195 -1.20248 -22.2022 3.05821 -20.399 -95.6527 -2.14582 179.892 34.2647 -7.62939e-006 1.90735e-006 -48.1454 7.02242e-006 7.84398e-006 20.4429 -7.62939e-006 5.72205e-006 70.7473 -1.39652e-007 2.12399e-007 16.5673 0 1.90735e-006 -21.4164 7.56374 -0.635843 9.18784 6.9484 -3.81507e-006 89.5774 1.50133 -0.0661847 1.01907 2.38418e-007 3.8147e-006 7.02976e-008 3.53293e-008 1.04913e-006 -21.4847 1.24024 13.75 -104.129 18.7148 -175.338 34.2647 7.62939e-006 -3.55271e-015 -47.8525 5.52713e-006 7.27996e-006 20.4429 2.13163e-014 -3.8147e-006 62.6939 5.23481e-006 -9.84202e-006 16.5673 1.90735e-006 3.8147e-006 -21.3242 -2.25237 0.24713 9.18784 6.9484 3.81435e-006 89.5168 -1.72894 0.0743162 1.01907 2.02061e-014 7.10543e-015 179.96 -1.00505e-005 1.79439e-005 39.3331 -0.0246582 0.000216067 -9.71827 -0.509995 -6.8142 34.2801 -15.593 -3.33791e-005 -14.3952 -0.0736864 2.34199 -13.5299 -16.1028 -6.77272 -163.87 -37.7759 118.632 17.4439 1.42109e-014 -3.8147e-006 32.4096 52.3234 -95.4575 30.6251 -7.15257e-007 -3.81469e-006 -17.6412 9.60792e-006 3.1685e-006 31.2039 -3.90799e-014 5.72204e-006 -136.76 79.9478 137.115 22.1039 0.255849 -0.379035 -7.17383 15.0335 -38.619 12.0552 -1.90735e-006 0 179.96 4.17294e-010 -9.42213e-006 -14.0368 -16.1193 5.60279 -167.487 38.7996 -112.793 17.4439 0 3.8147e-006 62.6923 -51.5086 110.963 30.6251 1.90735e-006 1.90735e-006 -27.1896 -1.57306e-005 -8.08122e-006 31.2039 3.8147e-006 -3.81469e-006 100.051 -86.8619 92.7059 22.1039 0.25586 0.379039 -10.0511 -4.18469 38.4622 12.0552 -1.90735e-006 -7.10541e-015 -3.89916e-008 9.64447e-006 -7.5638e-007 14.9375 -0.010376 -0.000137329 12.6768 0.728458 3.46741 14.3578 0.505471 -4.76818e-007 11.8705 2.18151 -1.88323 3.7699 -2.35626 12.3444 -172.152 32.5907 -81.2751 3.76993 -2.35621 -12.3442 5.80779 29.4013 114.549 11.8396 10.8645 4.76935e-007 -177.002 -3.76328 178.789 9.73753 3.21677 -9.5365e-007 -2.85749 -1.77654e-005 9.27553e-006 5.17482 0.535263 -0.159799 -9.7303 3.99611e-007 1.64506e-007 6.93462 -0.751786 -5.84422e-012 -82.5092 -5.19981 -1.97899 13.0965 7.6294e-006 -1.19209e-007 -7.84116 -1.63474 -11.6092 25.6158 7.6294e-006 -4.76837e-007 2.19369e-007 -1.04682e-007 1.01989e-009 
-43.3411 73.3613 -0.761718 91.6766 -87.2436 -178.191 0 0 0 -88.4558 5.82046 -79.9998 -18.6385 -9.591 5.95615e-007 -44.9976 -0.0508749 178.086 20.9743 9.52127e-013 -0.000671029 22.7245 0.262607 14.8281 20.3015 0 -9.53674e-007 7.50685 2.45714 15.9363 21.6394 -7.6294e-006 -9.53674e-007 9.35249 5.41885 31.0205 21.8029 1.59497 3.85973 9.30221 -3.031 -1.0661 -22.1587 3.05771 -20.4211 -95.6768 -2.09439 179.927 34.2647 -7.62939e-006 1.90735e-006 -48.0975 7.02921e-006 7.83799e-006 20.4429 -7.62939e-006 5.72205e-006 70.6873 -1.39907e-007 2.12671e-007 16.5673 7.10543e-015 1.90735e-006 -21.375 7.56087 -0.635217 9.18784 6.9484 -3.81525e-006 89.5774 1.50133 -0.0661847 1.01907 2.38418e-007 3.8147e-006 7.02976e-008 3.53293e-008 1.04913e-006 -21.5223 1.24721 13.7294 -104.28 18.7672 -175.274 34.2647 7.62939e-006 0 -47.9712 -1.93235e-006 1.40015e-005 20.4429 3.55271e-014 -3.8147e-006 62.6816 4.83428e-006 -1.00542e-005 16.5673 1.90735e-006 3.8147e-006 -21.2701 -2.25213 0.249256 9.18784 6.9484 3.81427e-006 89.5168 -1.72894 0.0743169 1.01907 2.30927e-014 7.10543e-015 179.96 -1.00505e-005 1.79439e-005 39.3331 -0.0246582 0.000216067 -9.78716 -0.521899 -6.95656 34.2801 -15.593 -3.33793e-005 -14.3064 -0.110964 2.42881 -13.5443 -16.0772 -6.80589 -163.884 -37.7951 118.752 17.4439 0 -3.8147e-006 32.4854 52.1059 -95.5942 30.6251 -7.15257e-007 -3.81469e-006 -18.0075 9.50031e-006 3.52339e-006 31.2039 -3.90799e-014 5.72204e-006 -136.626 79.9528 137.041 22.1039 0.255849 -0.379035 -7.17396 15.0335 -38.527 12.0552 -1.90735e-006 0 179.96 4.19888e-010 -9.42217e-006 -14.0698 -16.1021 5.56917 -167.651 38.7754 -112.674 17.4439 -1.42109e-014 3.8147e-006 62.4324 -51.28 110.69 30.6251 1.90735e-006 1.90735e-006 -27.7332 -1.5658e-005 -8.23099e-006 31.2039 3.8147e-006 -3.81469e-006 100.324 -86.8658 92.7888 22.1039 0.25586 0.379039 -10.047 -4.18162 38.3637 12.0552 -1.90735e-006 0 -3.89916e-008 9.64447e-006 -7.5638e-007 14.9375 -0.010376 -0.000137329 12.5257 0.719303 3.46932 14.3578 0.505471 -4.76808e-007 11.8367 2.23702 -1.89533 3.7699 -2.35626 12.3444 -172.128 32.5176 -81.3468 3.76993 -2.35621 -12.3442 5.76941 29.3577 114.636 11.8396 10.8645 4.76988e-007 -177.002 -3.76332 178.789 9.73753 3.21677 -9.53635e-007 -2.85749 -1.77655e-005 9.27554e-006 5.17482 0.535263 -0.159799 -9.7303 3.99136e-007 1.64569e-007 6.93462 -0.751786 -9.40048e-012 -82.6238 -5.19337 -1.87779 13.0965 7.6294e-006 -1.19209e-007 -7.81541 -1.63418 -11.3531 25.6158 7.6294e-006 -4.76837e-007 2.19369e-007 -1.04682e-007 1.01989e-009 
